<?xml version="1.0" standalone="no"?>
<!DOCTYPE svg PUBLIC "-//W3C//DTD SVG 20010904//EN"
 "http://www.w3.org/TR/2001/REC-SVG-20010904/DTD/svg10.dtd">
<svg version="1.0" xmlns="http://www.w3.org/2000/svg"
 width="700.000000pt" height="700.000000pt" viewBox="0 0 700.000000 700.000000"
 preserveAspectRatio="xMidYMid meet">
<metadata>
Created by potrace 1.14, written by Peter Selinger 2001-2017
</metadata>
<g transform="translate(0.000000,700.000000) scale(0.100000,-0.100000)"
fill="#000000" stroke="none">
<path d="M3261 6405 c-1 -473 1 -595 11 -596 40 -3 445 -4 456 -1 9 3 12 132
12 598 l0 594 -239 0 -240 0 0 -595z"/>
<path d="M5390 5729 c-228 -231 -416 -424 -418 -429 -3 -8 315 -330 327 -330
3 0 194 188 424 418 l418 418 -168 172 -168 171 -415 -420z"/>
<path d="M1027 5973 l-168 -167 418 -418 418 -418 55 54 c30 29 107 103 170
164 l115 111 -420 421 -421 421 -167 -168z"/>
<path d="M3338 5405 c-2 -2 -32 -6 -68 -9 -36 -3 -76 -8 -90 -11 -14 -3 -41
-8 -60 -11 -202 -32 -475 -144 -670 -273 -92 -62 -100 -68 -219 -172 -283
-246 -513 -621 -586 -954 -2 -11 -6 -31 -9 -45 -31 -140 -41 -246 -40 -440 0
-182 6 -246 35 -395 70 -352 244 -671 514 -940 266 -267 562 -435 900 -513
161 -37 251 -46 450 -47 146 0 287 9 325 20 8 3 29 7 45 9 17 2 41 6 55 10 14
3 36 8 50 10 159 29 412 142 596 266 78 52 90 62 208 166 252 220 460 539 552
846 27 91 29 99 49 210 37 202 42 468 11 683 -21 141 -86 362 -146 490 -115
244 -304 487 -519 666 -286 239 -575 365 -971 425 -45 6 -406 14 -412 9z m399
-489 c312 -54 546 -177 773 -405 281 -282 403 -565 416 -961 5 -158 2 -206
-32 -389 -11 -66 -63 -209 -105 -292 -35 -71 -121 -211 -139 -229 -3 -3 -18
-21 -34 -40 -101 -125 -278 -279 -388 -339 -141 -77 -291 -137 -384 -155 -154
-28 -216 -35 -345 -34 -315 1 -549 70 -794 234 -203 136 -382 338 -491 554
-60 119 -113 287 -131 416 -10 74 -11 359 -1 437 49 381 286 755 621 980 185
124 371 194 617 230 36 6 379 0 417 -7z"/>
<path d="M0 3500 l0 -240 595 0 595 0 1 43 c3 135 3 395 0 415 l-3 22 -594 0
-594 0 0 -240z"/>
<path d="M5809 3717 c-1 -29 -1 -417 0 -439 1 -17 36 -18 596 -18 l595 0 0
240 0 240 -595 0 -595 -1 -1 -22z"/>
<path d="M1276 1611 l-417 -417 171 -168 172 -168 421 421 422 422 -80 77
c-44 42 -123 116 -176 164 l-95 87 -418 -418z"/>
<path d="M5130 1869 c-85 -87 -157 -161 -160 -165 -2 -3 187 -194 420 -425
l425 -419 167 170 167 171 -107 103 c-59 57 -136 132 -172 166 -36 34 -157
151 -270 260 -259 250 -312 300 -314 299 0 -1 -71 -73 -156 -160z"/>
<path d="M3270 1192 c-7 -3 -10 -211 -10 -598 l0 -594 240 0 240 0 0 595 c0
469 -3 595 -12 596 -39 3 -450 3 -458 1z"/>
</g>
</svg>
